<svg xmlns="http://www.w3.org/2000/svg" xmlns:xlink="http://www.w3.org/1999/xlink" viewBox="0 0 24 24" fill="#FFFFFF">
  <path d="M9.6679688 2L9.1757812 4.5234375C8.3477813 4.8354375 7.5926406 5.2695 6.9316406 5.8125L4.5078125 4.9785156L2.1738281 9.0214844L4.1132812 10.708984C4.0362813 11.179984 4 11.602 4 12C4 12.395 4.0372812 12.817969 4.1132812 13.292969L2.1738281 14.980469L4.5078125 19.021484L6.9296875 18.1875C7.5926875 18.7315 8.3487813 19.166516 9.1757812 19.478516L9.6679688 22L11 22L11 18.380859L10.925781 18L9.8828125 17.605469C9.2598125 17.370469 8.6942188 17.046625 8.1992188 16.640625L7.3359375 15.931641L5.4140625 16.59375L4.7304688 15.40625L6.265625 14.070312L6.0878906 12.974609C6.0288906 12.607609 6 12.288 6 12C6 11.71 6.0288906 11.392344 6.0878906 11.027344L6.265625 9.9296875L4.7285156 8.59375L5.4140625 7.40625L7.3339844 8.0683594L8.1992188 7.359375C8.6922188 6.953375 9.2607656 6.6295313 9.8847656 6.3945312L10.925781 6L11.316406 4L12.685547 4L13.074219 6L14.117188 6.3945312C14.740187 6.6295313 15.307734 6.953375 15.802734 7.359375L16.666016 8.0683594L18.585938 7.40625L19.271484 8.59375L17.736328 9.9277344L17.912109 11.025391L17.912109 11.029297C17.971109 11.393297 18 11.71 18 12C18 12.29 17.971109 12.607656 17.912109 12.972656L17.734375 14.070312L18.802734 15L21.814453 15L21.826172 14.978516L19.886719 13.291016C19.962719 12.820016 20 12.398 20 12C20 11.602 19.963719 11.179031 19.886719 10.707031L21.826172 9.0195312L19.492188 4.9785156L17.070312 5.8125C16.407312 5.2685 15.651219 4.8334844 14.824219 4.5214844L14.332031 2L9.6679688 2 z M 12 8C9.8034768 8 8 9.8034768 8 12C8 14.196523 9.8034768 16 12 16C14.196523 16 16 14.196523 16 12C16 9.8034768 14.196523 8 12 8 z M 12 10C13.111477 10 14 10.888523 14 12C14 13.111477 13.111477 14 12 14C10.888523 14 10 13.111477 10 12C10 10.888523 10.888523 10 12 10 z M 14.345703 17L13 22L14.052734 22L14.310547 21L15.677734 21L15.9375 22L17 22L15.646484 17L14.345703 17 z M 18 17L18 22L19 22L19 20L19.5 20C20.328 20 21 19.328 21 18.5C21 17.672 20.328 17 19.5 17L18 17 z M 22 17L22 22L23 22L23 17L22 17 z M 19 18L19.5 18C19.776 18 20 18.224 20 18.5C20 18.776 19.776 19 19.5 19L19 19L19 18 z M 14.992188 18.353516L15.419922 20L14.568359 20L14.992188 18.353516 z" fill="#FFFFFF" />
</svg>